<svg width="151" height="42" fill="none" xmlns="http://www.w3.org/2000/svg"><g clip-path="url(#clip0_2_254)"><path d="M54.836 14.905L41.609 17.18l.615 3.562 13.227-2.276-.615-3.562z" fill="#CA4074"/><path d="M13.277.799C12.203.275 10.995 0 9.63 0 8.148 0 6.836.288 5.707.877A6.2 6.2 0 003.78 2.41V.196H0v16.947h3.975V8.578c0-1.14.197-2.095.59-2.842.394-.746.945-1.323 1.667-1.702.722-.38 1.548-.577 2.48-.577 1.272 0 2.27.367 2.978 1.114.708.746 1.063 1.86 1.063 3.365v9.207h3.975V7.426c0-1.716-.302-3.117-.918-4.204-.617-1.087-1.457-1.9-2.533-2.423zm20.874.314C32.788.367 31.226 0 29.454 0c-1.77 0-3.293.367-4.644 1.113a8.497 8.497 0 00-3.214 3.065c-.788 1.296-1.181 2.802-1.181 4.492s.393 3.17 1.18 4.479a8.374 8.374 0 003.215 3.09c1.351.747 2.9 1.127 4.645 1.127 1.745 0 3.319-.38 4.697-1.127a8.284 8.284 0 003.214-3.09c.774-1.31 1.154-2.803 1.154-4.48 0-1.676-.38-3.22-1.154-4.504-.774-1.297-1.85-2.305-3.215-3.052zM33.864 11.5a4.6 4.6 0 01-1.798 1.846c-.76.42-1.626.642-2.61.642s-1.811-.21-2.559-.642c-.748-.419-1.351-1.034-1.797-1.846-.446-.812-.67-1.742-.67-2.83 0-1.086.224-2.042.67-2.841a4.62 4.62 0 011.797-1.82c.748-.42 1.614-.63 2.598-.63.984 0 1.81.21 2.571.63a4.534 4.534 0 011.798 1.82c.433.799.656 1.742.656 2.842s-.223 2.017-.656 2.829zM73.183.799C72.108.275 70.901 0 69.536 0c-1.482 0-2.794.288-3.923.877a6.2 6.2 0 00-1.928 1.533V.196h-3.792v16.947h3.975V8.578c0-1.14.197-2.095.59-2.842.394-.746.945-1.323 1.667-1.702.722-.38 1.548-.577 2.48-.577 1.272 0 2.27.367 2.978 1.114.708.746 1.063 1.86 1.063 3.365v9.207h3.975V7.426c0-1.716-.302-3.117-.918-4.204-.617-1.087-1.457-1.9-2.533-2.423h.013zM88.18 0c-1.352 0-2.664.17-3.923.524-1.26.353-2.349.877-3.267 1.571l1.561 2.895c.63-.524 1.417-.943 2.336-1.245a9.009 9.009 0 012.82-.445c1.418 0 2.48.328 3.176.97.695.641 1.05 1.545 1.05 2.71v.25h-4.396c-1.719 0-3.096.222-4.133.667-1.036.445-1.784 1.048-2.243 1.807-.46.76-.683 1.624-.683 2.567 0 .943.263 1.847.775 2.62.524.772 1.259 1.375 2.217 1.807.957.432 2.073.655 3.345.655 1.51 0 2.756-.275 3.74-.826a4.472 4.472 0 001.6-1.48v2.083h3.753V7.203c0-2.462-.67-4.27-2.02-5.448C92.535.576 90.632-.013 88.18-.013V0zm2.086 13.817c-.774.445-1.653.668-2.624.668-.97 0-1.81-.21-2.388-.642-.577-.42-.853-.996-.853-1.716a2.1 2.1 0 01.696-1.598c.459-.432 1.377-.654 2.729-.654h4.106v1.964c-.34.864-.892 1.52-1.666 1.964v.014zM126.057.799C125.008.275 123.801 0 122.449 0c-1.679 0-3.148.38-4.421 1.14a6.84 6.84 0 00-1.929 1.728 5.146 5.146 0 00-1.587-1.69C113.331.394 111.953 0 110.366 0c-1.404 0-2.65.288-3.739.851a5.53 5.53 0 00-1.824 1.506V.197h-3.792v16.946h3.976V8.54c0-1.14.183-2.082.551-2.829a3.905 3.905 0 011.561-1.69c.669-.392 1.43-.576 2.309-.576 1.233 0 2.178.367 2.834 1.114.656.746.984 1.86.984 3.365v9.207h3.975V8.539c0-1.14.184-2.082.551-2.829a3.913 3.913 0 011.562-1.69c.669-.392 1.43-.576 2.309-.576 1.233 0 2.178.367 2.834 1.114.656.746.984 1.86.984 3.365v9.207h3.975V7.426c0-1.716-.302-3.117-.892-4.204-.59-1.087-1.417-1.9-2.467-2.423zm23.341 3.326c-.748-1.31-1.758-2.33-3.057-3.051C145.042.354 143.573 0 141.919 0c-1.653 0-3.214.367-4.539 1.113a8.25 8.25 0 00-3.123 3.065c-.747 1.296-1.128 2.802-1.128 4.492s.381 3.17 1.168 4.479c.774 1.31 1.863 2.344 3.28 3.09 1.404.747 3.057 1.127 4.946 1.127 1.483 0 2.808-.236 3.962-.72 1.155-.472 2.113-1.153 2.874-2.044l-2.126-2.449a5.458 5.458 0 01-2.034 1.402c-.761.3-1.626.445-2.571.445-1.102 0-2.073-.21-2.926-.642-.853-.419-1.509-1.021-1.968-1.807a4.932 4.932 0 01-.59-1.624h13.317a8.65 8.65 0 00.052-.602c.013-.21.013-.406.013-.577 0-1.78-.367-3.326-1.115-4.636l-.013.013zm-11.756 1.441a4.547 4.547 0 011.719-1.768c.735-.42 1.588-.629 2.558-.629.971 0 1.798.21 2.533.629a4.618 4.618 0 012.296 3.484h-9.657c.092-.642.263-1.218.551-1.73v.014zM1.876 34.208c.263-.25.577-.446.932-.59.367-.144.748-.21 1.167-.21.42 0 .8.066 1.155.21.354.131.682.354.984.642l.656-.655a3.118 3.118 0 00-1.233-.851 4.517 4.517 0 00-1.601-.288 4.32 4.32 0 00-1.574.275 3.731 3.731 0 00-1.247.786 3.59 3.59 0 00-.826 1.191A3.76 3.76 0 000 36.224c0 .55.092 1.048.289 1.507a3.6 3.6 0 00.826 1.191c.354.34.761.603 1.247.786a4.3 4.3 0 001.56.275 4.85 4.85 0 001.51-.236 3.735 3.735 0 001.272-.694v-2.868h-1.01v2.384c-.197.13-.38.235-.59.3a3.635 3.635 0 01-1.129.184 2.967 2.967 0 01-2.1-.799 2.701 2.701 0 01-.615-.903 2.897 2.897 0 01-.21-1.113c0-.393.065-.786.21-1.127.144-.34.34-.641.616-.903zm7.662 1.112v-.981h-.97v5.566h1.01v-2.777c0-.615.157-1.074.472-1.401.315-.328.748-.485 1.286-.485h.223v-.982c-.538 0-.984.105-1.352.301-.314.17-.524.42-.682.72l.013.04zm7.098-.667a3.07 3.07 0 00-1.482-.367c-.551 0-1.063.118-1.496.367a2.734 2.734 0 00-1.037 1.008c-.249.432-.38.917-.38 1.467s.131 1.035.38 1.467c.25.432.59.773 1.037 1.008.433.25.931.367 1.496.367.564 0 1.05-.118 1.482-.367a2.736 2.736 0 001.037-1.008c.249-.432.367-.917.367-1.467s-.131-1.048-.367-1.48c-.25-.419-.59-.76-1.037-.995zm.145 3.51c-.158.3-.381.524-.67.694-.288.17-.603.236-.957.236-.355 0-.683-.08-.958-.236a1.71 1.71 0 01-.67-.694 2.057 2.057 0 01-.249-1.035c0-.393.08-.746.25-1.035.17-.288.393-.51.669-.68.275-.158.603-.236.958-.236.354 0 .682.078.957.235.276.158.512.393.67.681.157.288.236.63.236 1.035 0 .406-.08.733-.236 1.035zm8.383.628l-1.653-4.452h-.853l-1.692 4.44-1.614-4.44h-.958l2.073 5.566h.971l1.627-4.218 1.614 4.218h.958l2.086-5.566h-.906l-1.653 4.452zm5.773.328c-.276 0-.498-.079-.643-.236-.157-.157-.223-.393-.223-.694v-3.012h1.6v-.825h-1.6v-1.218h-1.01v1.218h-.945v.825h.945v3.051c0 .563.157.995.46 1.297.314.3.747.458 1.298.458.236 0 .46-.026.67-.092a1.58 1.58 0 00.55-.288l-.315-.72c-.21.17-.472.262-.787.262v-.026zm6.508-4.571a2.686 2.686 0 00-1.208-.262c-.511 0-.944.105-1.325.301-.275.144-.472.34-.642.576v-3.05h-1.01v7.791h1.01v-2.868c0-.406.065-.746.21-1.021a1.4 1.4 0 01.616-.616c.263-.144.577-.21.932-.21.472 0 .852.132 1.115.407.262.275.393.68.393 1.218v3.09h1.01v-3.208c0-.55-.091-.995-.288-1.35a1.91 1.91 0 00-.813-.798zm11.572 2.135l-.814-.262a4.63 4.63 0 01-.472 1.323l-1.81-1.794c.275-.158.524-.302.708-.446.301-.222.524-.458.656-.694.13-.236.21-.498.21-.773a1.5 1.5 0 00-.223-.825 1.499 1.499 0 00-.643-.524 2.42 2.42 0 00-.971-.183c-.394 0-.748.066-1.05.21a1.59 1.59 0 00-.695.576c-.17.249-.25.537-.25.864 0 .184.027.38.092.563.066.184.17.367.302.564.118.17.289.353.486.563-.342.196-.63.38-.866.563-.328.262-.565.524-.709.799a1.92 1.92 0 00-.223.903c0 .38.118.708.341.996.223.288.525.51.919.668.38.157.826.235 1.325.235.63 0 1.18-.13 1.68-.393.288-.144.537-.34.76-.563l.997.983.564-.668-.997-.996a4.82 4.82 0 00.656-1.676l.026-.013zm-4.12-3.209c.184-.17.446-.249.774-.249s.55.079.721.223c.171.144.25.34.25.59 0 .17-.053.34-.158.484a2.023 2.023 0 01-.511.471c-.158.105-.38.236-.617.38-.17-.183-.328-.34-.42-.458a1.413 1.413 0 01-.25-.406 1.214 1.214 0 01-.065-.38c0-.262.092-.484.276-.642v-.013zm1.797 5.37c-.38.21-.8.301-1.272.301a2.49 2.49 0 01-.866-.144 1.206 1.206 0 01-.578-.42 1.026 1.026 0 01-.21-.615c0-.222.053-.419.158-.602a1.95 1.95 0 01.512-.55c.17-.144.42-.288.695-.445l2.086 2.082a2.496 2.496 0 01-.525.393zm13.724-6.287l-3.03 5.16-3.071-5.16h-.866v7.347h1.01v-5.33l2.664 4.44h.485l2.663-4.466.014 5.356h1.01l-.013-7.347h-.866zm4.959 1.729c-.446 0-.866.066-1.272.183a2.884 2.884 0 00-1.037.537l.42.76a2.47 2.47 0 01.8-.432 3.07 3.07 0 01.971-.157c.499 0 .866.118 1.115.353.25.236.368.563.368.996v.196H65.14c-.551 0-.997.079-1.325.223-.328.144-.564.34-.709.589a1.61 1.61 0 00-.21.825c0 .314.08.602.25.851.17.25.407.446.721.59.315.144.67.21 1.09.21.511 0 .93-.092 1.272-.289.25-.144.42-.327.564-.55v.773h.958v-3.366c0-.76-.21-1.323-.617-1.703-.42-.366-.997-.55-1.771-.55l.013-.039zm.761 4.65c-.288.17-.617.248-.997.248s-.682-.078-.905-.249a.772.772 0 01-.328-.654.85.85 0 01.262-.616c.17-.17.512-.249 1.023-.249h1.562v.773a1.421 1.421 0 01-.617.733v.013zm4.474-3.616v-.981h-.97v5.566h1.01v-2.777c0-.615.157-1.074.472-1.401.315-.328.748-.485 1.286-.485h.223v-.982c-.538 0-.984.105-1.352.301-.315.17-.525.42-.682.72l.013.04zm8.541-.982h-1.22l-3.044 2.777v-5.003h-1.01v7.792h1.01v-1.519l1.155-1.074 2.099 2.593h1.246l-2.584-3.26 2.348-2.306zm4.697.302a2.859 2.859 0 00-1.43-.354c-.538 0-1.01.118-1.443.367-.42.236-.761.576-.997 1.008a3.003 3.003 0 00-.368 1.467c0 .55.119 1.048.368 1.467.25.432.603.76 1.05 1.008.445.25.97.367 1.574.367.459 0 .879-.079 1.26-.236.38-.157.695-.38.944-.668l-.564-.655c-.21.223-.446.393-.709.511-.275.118-.564.17-.905.17a2.35 2.35 0 01-1.063-.235 1.725 1.725 0 01-.721-.681c-.132-.21-.184-.459-.223-.708h4.513s0-.104.013-.157v-.144c0-.576-.118-1.074-.354-1.506a2.66 2.66 0 00-.971-1.008l.026-.013zm-2.361.733c.275-.157.59-.236.931-.236.341 0 .67.079.945.236.275.157.485.38.643.655.118.21.17.445.196.707H80.65c.026-.249.092-.484.197-.694.157-.288.367-.498.643-.668zm7.111 3.746c-.276 0-.499-.079-.643-.236-.158-.157-.223-.393-.223-.694v-3.012h1.6v-.825h-1.6v-1.218h-1.01v1.218h-.945v.825h.945v3.051c0 .563.157.995.459 1.297.314.3.747.458 1.299.458.236 0 .459-.026.669-.092a1.58 1.58 0 00.55-.288l-.314-.72c-.21.17-.472.262-.787.262v-.026zm2.834-7.164a.698.698 0 00-.486.183.643.643 0 00-.197.472c0 .183.066.34.197.458a.644.644 0 00.486.184.683.683 0 00.498-.197.63.63 0 00.184-.471.594.594 0 00-.197-.459.697.697 0 00-.485-.183v.013zm.511 2.384h-1.01v5.566h1.01v-5.566zm6.101.209a2.686 2.686 0 00-1.207-.262c-.512 0-.945.105-1.325.301-.289.157-.512.38-.682.629v-.877h-.971v5.566h1.01v-2.869c0-.406.066-.746.21-1.021a1.4 1.4 0 01.617-.616c.262-.144.577-.21.931-.21.472 0 .853.132 1.115.407.263.275.394.68.394 1.218v3.09h1.01v-3.208c0-.55-.092-.995-.288-1.35a1.91 1.91 0 00-.814-.798zm7.36.682c-.21-.276-.446-.512-.761-.656a2.858 2.858 0 00-1.298-.288 3.06 3.06 0 00-1.444.34 2.593 2.593 0 00-1.01.944c-.249.406-.367.877-.367 1.414 0 .537.118.995.367 1.401s.591.72 1.01.956c.42.223.906.34 1.444.34.472 0 .918-.104 1.298-.3.276-.144.499-.354.709-.603v.472c0 .628-.158 1.1-.459 1.401-.315.301-.787.458-1.457.458-.419 0-.813-.065-1.194-.196a2.716 2.716 0 01-.957-.537l-.486.773c.302.262.696.471 1.168.615.485.144.971.21 1.483.21.944 0 1.666-.236 2.151-.694.486-.459.735-1.18.735-2.161v-4.807h-.958v.89l.026.027zm-.275 2.684a1.792 1.792 0 01-.682.642 2.026 2.026 0 01-.984.235c-.368 0-.709-.078-.997-.235a1.7 1.7 0 01-.683-.642 1.752 1.752 0 01-.249-.943c0-.354.079-.668.249-.943.171-.275.394-.485.683-.629.288-.157.616-.222.997-.222.38 0 .695.078.984.222.288.144.511.367.682.629.17.275.249.59.249.943 0 .354-.079.668-.249.943zm8.357-5.357l-3.332 7.347h1.089l.813-1.833h3.91l.813 1.833h1.103l-3.346-7.347h-1.05zm-1.075 4.676L114 33.618l1.588 3.615h-3.175zm10.732-2.003c-.21-.276-.446-.512-.761-.656a2.866 2.866 0 00-1.299-.288c-.538 0-1.024.118-1.443.34a2.6 2.6 0 00-1.011.944c-.249.406-.367.877-.367 1.414 0 .537.118.995.367 1.401.25.406.591.72 1.011.956.419.223.905.34 1.443.34a2.84 2.84 0 001.299-.3c.275-.144.498-.354.708-.603v.472c0 .628-.157 1.1-.459 1.401-.315.301-.787.458-1.456.458a3.62 3.62 0 01-1.194-.196c-.381-.131-.696-.301-.958-.537l-.485.773c.301.262.695.471 1.167.615.486.144.971.21 1.483.21.944 0 1.666-.236 2.152-.694.485-.459.734-1.18.734-2.161v-4.807h-.958v.89l.027.027zm-.276 2.684c-.17.275-.393.484-.682.642a2.026 2.026 0 01-.984.235c-.367 0-.709-.078-.997-.235a1.69 1.69 0 01-.682-.642 1.744 1.744 0 01-.25-.943c0-.354.079-.668.25-.943.17-.275.393-.485.682-.629.288-.157.616-.222.997-.222.38 0 .695.078.984.222.289.144.512.367.682.629.171.275.249.59.249.943 0 .354-.078.668-.249.943zm6.875-3.274a2.859 2.859 0 00-1.43-.354c-.538 0-1.01.118-1.443.367-.42.236-.761.576-.997 1.008a3.006 3.006 0 00-.368 1.467c0 .55.118 1.048.368 1.467.249.432.603.76 1.049 1.008.446.25.971.367 1.575.367.459 0 .879-.079 1.259-.236a2.47 2.47 0 00.945-.668l-.564-.655c-.21.223-.446.393-.709.511-.275.118-.564.17-.905.17a2.35 2.35 0 01-1.063-.235 1.72 1.72 0 01-.721-.681c-.132-.21-.184-.459-.223-.708h4.513s0-.104.013-.157v-.144c0-.576-.118-1.074-.354-1.506a2.657 2.657 0 00-.971-1.008l.026-.013zm-2.361.733c.275-.157.59-.236.931-.236.341 0 .669.079.945.236.275.157.485.38.643.655.118.21.17.445.196.707h-3.555c.026-.249.092-.484.197-.694.157-.288.367-.498.643-.668zm9.275-.825a2.686 2.686 0 00-1.207-.262c-.511 0-.944.105-1.325.301a1.97 1.97 0 00-.682.629v-.877h-.971v5.566h1.01v-2.869c0-.406.066-.746.21-1.021a1.4 1.4 0 01.617-.616c.262-.144.577-.21.931-.21.473 0 .853.132 1.116.407.262.275.393.68.393 1.218v3.09h1.01v-3.208c0-.55-.091-.995-.288-1.35a1.914 1.914 0 00-.814-.798zm4.422.864c.288-.157.616-.235.984-.235.302 0 .59.065.853.196.262.131.485.328.669.603l.774-.498a2.148 2.148 0 00-.919-.89 3.01 3.01 0 00-1.351-.302c-.564 0-1.076.118-1.522.367a2.59 2.59 0 00-1.049 1.008c-.25.432-.381.917-.381 1.467s.131 1.048.381 1.467c.249.432.603.76 1.049 1.008.446.25.958.367 1.522.367.512 0 .958-.105 1.351-.314a2.15 2.15 0 00.919-.89l-.774-.485a1.725 1.725 0 01-.669.602 1.91 1.91 0 01-.853.196c-.368 0-.696-.078-.984-.235a1.785 1.785 0 01-.682-.681c-.171-.288-.25-.642-.25-1.035 0-.393.079-.746.25-1.035.17-.288.393-.51.682-.68zm8.436-1.073l-1.929 4.452-1.941-4.452h-1.05l2.467 5.553-.184.392c-.144.315-.289.55-.446.668a1.017 1.017 0 01-.617.184c-.183 0-.367-.04-.538-.105a1.334 1.334 0 01-.459-.301l-.433.76c.184.17.394.3.656.379.249.092.512.131.774.131.289 0 .551-.052.787-.144a1.7 1.7 0 00.656-.471c.197-.223.381-.538.538-.93l2.703-6.116h-.984z" fill="#221F20"/></g><defs><clipPath id="clip0_2_254"><path fill="#fff" d="M0 0h150.5v42H0z"/></clipPath></defs></svg>