<svg width="173" height="24" fill="none" xmlns="http://www.w3.org/2000/svg"><path class="line" d="M62.67 17.049l-15.117 2.6.703 4.072 15.117-2.601-.703-4.071z" fill="#CA4074"/><path class="let" d="M15.174.928c-1.23-.599-2.609-.913-4.168-.913-1.695 0-3.194.33-4.483 1.003a7.086 7.086 0 00-2.205 1.75V.24H0v19.368h4.543v-9.79c0-1.302.225-2.394.675-3.247.45-.854 1.08-1.512 1.904-1.946.825-.434 1.77-.659 2.834-.659 1.455 0 2.594.42 3.404 1.272.81.854 1.215 2.126 1.215 3.847v10.522h4.543V8.501c0-1.96-.345-3.562-1.05-4.804-.705-1.242-1.664-2.17-2.894-2.77zm23.856.359C37.471.434 35.687.015 33.662.015c-2.024 0-3.763.419-5.308 1.272-1.544.853-2.774 2.02-3.673 3.502-.9 1.482-1.35 3.203-1.35 5.134 0 1.931.45 3.622 1.35 5.119a9.57 9.57 0 003.673 3.532c1.545.853 3.314 1.287 5.308 1.287 1.995 0 3.794-.434 5.368-1.287 1.56-.853 2.79-2.035 3.674-3.532.885-1.497 1.32-3.203 1.32-5.119s-.435-3.682-1.32-5.149c-.885-1.481-2.114-2.634-3.674-3.487zm-.33 11.87a5.26 5.26 0 01-2.054 2.11c-.87.479-1.859.733-2.984.733-1.124 0-2.069-.24-2.924-.733-.854-.48-1.544-1.183-2.054-2.11-.51-.929-.764-1.992-.764-3.234s.254-2.335.764-3.248a5.279 5.279 0 012.054-2.08c.855-.48 1.845-.719 2.97-.719 1.124 0 2.069.24 2.938.719a5.183 5.183 0 012.054 2.08c.495.913.75 1.991.75 3.248 0 1.258-.255 2.305-.75 3.233zM83.638.928C82.408.329 81.03.015 79.47.015c-1.694 0-3.194.33-4.483 1.003a7.087 7.087 0 00-2.204 1.75V.24h-4.334v19.368h4.544v-9.79c0-1.302.224-2.394.674-3.247.45-.854 1.08-1.512 1.904-1.946.825-.434 1.77-.659 2.835-.659 1.454 0 2.593.42 3.403 1.272.81.854 1.215 2.126 1.215 3.847v10.522h4.543V8.501c0-1.96-.345-3.562-1.05-4.804-.704-1.242-1.664-2.17-2.893-2.77h.014zm17.139-.913c-1.544 0-3.044.195-4.483.599-1.44.404-2.684 1.002-3.734 1.796l1.784 3.307c.72-.598 1.62-1.077 2.67-1.421a10.27 10.27 0 013.223-.51c1.62 0 2.834.375 3.629 1.108.795.734 1.199 1.766 1.199 3.099v.284h-5.023c-1.964 0-3.538.254-4.723.763-1.184.51-2.04 1.198-2.564 2.066-.525.868-.78 1.856-.78 2.933 0 1.078.3 2.11.885 2.994.6.883 1.44 1.571 2.534 2.065 1.095.494 2.37.749 3.824.749 1.724 0 3.148-.315 4.273-.943a5.11 5.11 0 001.829-1.692v2.38h4.289V8.247c0-2.814-.765-4.88-2.309-6.226C105.755.674 103.581 0 100.777 0v.015zm2.384 15.79c-.885.51-1.889.764-2.999.764s-2.069-.24-2.729-.734c-.66-.479-.974-1.137-.974-1.96 0-.734.27-1.332.794-1.826.525-.494 1.575-.749 3.119-.749h4.693v2.245c-.389.988-1.019 1.737-1.904 2.245v.015zM144.066.928c-1.2-.599-2.579-.913-4.124-.913-1.919 0-3.598.434-5.053 1.302a7.805 7.805 0 00-2.204 1.976c-.465-.779-1.065-1.437-1.814-1.931-1.35-.898-2.924-1.347-4.739-1.347-1.604 0-3.028.33-4.273.973a6.329 6.329 0 00-2.084 1.721V.239h-4.334v19.368h4.544V9.774c0-1.303.21-2.38.629-3.233a4.465 4.465 0 011.785-1.931c.764-.45 1.634-.659 2.639-.659 1.409 0 2.489.42 3.239 1.272.749.854 1.124 2.126 1.124 3.847v10.522h4.543V9.774c0-1.303.21-2.38.63-3.233a4.465 4.465 0 011.785-1.931c.764-.45 1.634-.659 2.638-.659 1.41 0 2.49.42 3.239 1.272.75.854 1.125 2.126 1.125 3.847v10.522h4.543V8.502c0-1.961-.345-3.563-1.019-4.805-.675-1.242-1.62-2.17-2.819-2.77zM170.74 4.73c-.854-1.497-2.009-2.665-3.493-3.488-1.485-.823-3.164-1.227-5.053-1.227-1.89 0-3.674.419-5.188 1.272a9.425 9.425 0 00-3.569 3.502c-.855 1.482-1.29 3.203-1.29 5.134 0 1.931.435 3.622 1.335 5.119.885 1.497 2.129 2.68 3.749 3.532 1.604.853 3.493 1.287 5.652 1.287 1.695 0 3.209-.269 4.529-.823 1.319-.538 2.414-1.317 3.283-2.335l-2.429-2.798a6.23 6.23 0 01-2.324 1.601c-.869.344-1.859.509-2.939.509-1.259 0-2.369-.24-3.343-.734-.975-.479-1.725-1.167-2.25-2.065a5.64 5.64 0 01-.674-1.856h15.219c.03-.224.045-.449.06-.688.015-.24.015-.464.015-.659 0-2.036-.42-3.802-1.275-5.298l-.015.015zm-13.434 1.646a5.187 5.187 0 011.964-2.02c.839-.48 1.814-.719 2.924-.719 1.109 0 2.054.24 2.894.718a5.267 5.267 0 012.624 3.982h-11.036c.105-.734.3-1.392.63-1.976v.015z" fill="#221F20"/></svg>