<svg width="172" height="13" fill="none" xmlns="http://www.w3.org/2000/svg"><path d="M2.144 3.11c.3-.285.66-.51 1.065-.674a3.58 3.58 0 011.334-.24c.48 0 .915.075 1.32.24.405.15.78.404 1.124.733l.75-.748a3.563 3.563 0 00-1.41-.973 5.16 5.16 0 00-1.829-.33c-.66 0-1.26.105-1.799.315a4.26 4.26 0 00-1.424.898A4.12 4.12 0 00.33 3.693C.105 4.217 0 4.786 0 5.414c0 .629.105 1.198.33 1.721.225.524.54.973.945 1.363.404.389.87.688 1.424.898.54.21 1.14.314 1.784.314.6 0 1.17-.09 1.725-.27a4.267 4.267 0 001.454-.793V5.37H6.508v2.724c-.225.15-.435.27-.675.345-.42.134-.84.21-1.29.21-.48 0-.93-.076-1.334-.24a3.392 3.392 0 01-1.065-.674c-.3-.3-.54-.628-.705-1.033A3.31 3.31 0 011.2 5.43c0-.449.076-.898.24-1.287.165-.39.39-.733.705-1.033zM10.9 4.382V3.259H9.792V9.62h1.155V6.447c0-.703.18-1.227.54-1.601.36-.375.854-.554 1.47-.554h.254V3.169c-.615 0-1.125.12-1.544.344-.36.195-.6.48-.78.824l.015.045zm8.113-.764a3.507 3.507 0 00-1.695-.419c-.63 0-1.214.135-1.709.42a3.116 3.116 0 00-1.184 1.152 3.285 3.285 0 00-.435 1.676c0 .629.15 1.183.435 1.676.284.494.674.884 1.184 1.153.495.284 1.065.419 1.71.419.644 0 1.199-.135 1.694-.42.495-.283.9-.658 1.184-1.152.285-.493.42-1.047.42-1.676a3.49 3.49 0 00-.42-1.691 2.986 2.986 0 00-1.184-1.138zm.165 4.012a1.95 1.95 0 01-.765.793c-.33.194-.69.27-1.095.27-.404 0-.78-.09-1.094-.27a1.953 1.953 0 01-.765-.793c-.195-.345-.285-.734-.285-1.183 0-.449.09-.853.285-1.182.195-.33.45-.584.765-.779.315-.18.69-.269 1.095-.269.404 0 .78.09 1.094.27.315.179.585.448.765.778.18.329.27.718.27 1.182 0 .464-.09.838-.27 1.183zm9.581.718l-1.89-5.089h-.974l-1.934 5.074-1.844-5.074h-1.095l2.37 6.361H24.5l1.86-4.82 1.844 4.82H29.3l2.384-6.361h-1.035L28.76 8.348zm6.598.374c-.315 0-.57-.09-.735-.27-.18-.179-.255-.448-.255-.793V4.217h1.83v-.943h-1.83V1.882h-1.155v1.392h-1.08v.943h1.08v3.487c0 .644.18 1.138.525 1.482.36.344.855.524 1.485.524.27 0 .524-.03.764-.105s.45-.18.63-.33l-.36-.822c-.24.194-.54.3-.9.3v-.03zm7.437-5.223c-.39-.195-.855-.3-1.38-.3-.584 0-1.08.12-1.514.344-.315.165-.54.39-.735.659V.715h-1.154V9.62h1.154V6.342c0-.464.075-.853.24-1.167a1.6 1.6 0 01.705-.704c.3-.164.66-.24 1.065-.24.54 0 .974.15 1.274.465.3.314.45.778.45 1.392V9.62h1.154V5.953c0-.628-.104-1.137-.33-1.541a2.184 2.184 0 00-.93-.913zm13.225 2.439l-.93-.3a5.28 5.28 0 01-.54 1.512L52.48 5.1c.315-.18.6-.344.81-.509.345-.254.6-.524.75-.793.15-.27.24-.569.24-.883 0-.374-.09-.689-.255-.943a1.714 1.714 0 00-.735-.599 2.768 2.768 0 00-1.11-.21c-.45 0-.854.075-1.2.24a1.82 1.82 0 00-.794.659 1.699 1.699 0 00-.285.987c0 .21.03.434.105.644.075.21.195.42.345.644.135.194.33.404.555.643-.39.225-.72.434-.99.644-.375.3-.645.599-.81.913a2.193 2.193 0 00-.254 1.033c0 .434.135.808.39 1.137.254.33.6.584 1.049.763.435.18.945.27 1.514.27.72 0 1.35-.15 1.92-.45.33-.164.614-.388.87-.643l1.139 1.123.645-.764-1.14-1.137c.345-.539.6-1.168.75-1.916l.03-.015zM51.31 2.271c.21-.194.51-.284.884-.284.375 0 .63.09.825.254.195.165.285.39.285.674a.94.94 0 01-.18.554c-.12.164-.315.359-.585.538-.18.12-.435.27-.705.434-.194-.21-.374-.389-.48-.523a1.617 1.617 0 01-.284-.464 1.388 1.388 0 01-.075-.434c0-.3.105-.554.315-.734v-.015zm2.054 6.137c-.435.24-.915.344-1.455.344a2.86 2.86 0 01-.99-.165 1.38 1.38 0 01-.659-.479c-.15-.21-.24-.434-.24-.703 0-.255.06-.479.18-.689.12-.21.315-.419.585-.628.195-.165.48-.33.794-.51l2.385 2.38c-.18.18-.39.33-.6.45zm15.685-7.185L65.585 7.12l-3.508-5.897h-.99V9.62h1.154V3.528l3.044 5.074h.555l3.044-5.104.015 6.122h1.154l-.014-8.397h-.99zM74.717 3.2c-.51 0-.99.074-1.455.209a3.297 3.297 0 00-1.184.613l.48.869c.254-.21.554-.375.914-.494.36-.12.735-.18 1.11-.18.57 0 .99.135 1.274.404.285.27.42.644.42 1.138v.224h-1.83c-.629 0-1.139.09-1.514.255-.374.164-.644.389-.81.673a1.84 1.84 0 00-.24.943c0 .36.09.689.286.973.195.284.464.509.824.673.36.165.765.24 1.245.24.585 0 1.065-.105 1.454-.33a1.85 1.85 0 00.645-.628v.883h1.095V5.818c0-.868-.24-1.511-.705-1.945-.48-.42-1.14-.629-2.024-.629l.015-.045zm.87 5.313c-.33.194-.705.284-1.14.284-.435 0-.78-.09-1.035-.284a.882.882 0 01-.375-.749.97.97 0 01.3-.703c.195-.195.585-.285 1.17-.285h1.784v.883c-.15.375-.375.644-.705.839v.015zM80.7 4.382V3.259h-1.11V9.62h1.154V6.447c0-.703.18-1.227.54-1.601.36-.375.855-.554 1.47-.554h.255V3.169c-.615 0-1.125.12-1.545.344-.36.195-.6.48-.78.824l.015.045zm9.76-1.123h-1.394l-3.478 3.173V.715h-1.155V9.62h1.155V7.884l1.32-1.227 2.398 2.963h1.425l-2.954-3.727L90.46 3.26zm5.369.344c-.48-.27-1.02-.404-1.635-.404-.614 0-1.154.135-1.649.42-.48.269-.87.658-1.14 1.152a3.432 3.432 0 00-.42 1.676c0 .629.136 1.197.42 1.676.285.494.69.869 1.2 1.153.51.284 1.11.419 1.8.419a3.73 3.73 0 001.439-.27 2.823 2.823 0 001.08-.763l-.645-.748a2.55 2.55 0 01-.81.584 2.55 2.55 0 01-1.035.194c-.45 0-.854-.09-1.214-.27a1.963 1.963 0 01-.825-.778c-.15-.239-.21-.523-.255-.808h5.158s0-.12.015-.18v-.164c0-.659-.135-1.227-.405-1.721a3.038 3.038 0 00-1.11-1.153l.03-.015zm-2.7.838c.316-.18.675-.269 1.065-.269.39 0 .765.09 1.08.27.315.18.555.434.735.748.135.24.195.509.225.808H92.17a2.31 2.31 0 01.225-.793c.18-.33.42-.569.735-.764zm8.128 4.281c-.315 0-.57-.09-.735-.27-.18-.179-.255-.448-.255-.793V4.217h1.829v-.943h-1.829V1.882h-1.154v1.392h-1.08v.943h1.08v3.487c0 .644.18 1.138.524 1.482.36.344.855.524 1.485.524.27 0 .525-.03.765-.105a1.81 1.81 0 00.629-.33l-.36-.822c-.24.194-.539.3-.899.3v-.03zm3.239-8.187a.797.797 0 00-.555.21.734.734 0 00-.225.538c0 .21.075.39.225.524.15.15.33.21.555.21a.78.78 0 00.569-.225.72.72 0 00.21-.539.675.675 0 00-.225-.523.796.796 0 00-.554-.21v.015zm.584 2.724h-1.154V9.62h1.154V3.26zm6.973.24c-.39-.195-.855-.3-1.38-.3-.585 0-1.079.12-1.514.344-.33.18-.585.435-.78.719V3.259h-1.109V9.62h1.154V6.342c0-.464.075-.853.24-1.167a1.6 1.6 0 01.705-.704c.3-.164.659-.239 1.064-.239.54 0 .975.15 1.275.464.3.314.45.778.45 1.392V9.62h1.154V5.953c0-.628-.105-1.137-.33-1.541a2.182 2.182 0 00-.929-.913zm8.411.778c-.24-.314-.509-.584-.869-.748a3.275 3.275 0 00-1.485-.33c-.615 0-1.169.135-1.649.39a2.96 2.96 0 00-1.155 1.077c-.285.464-.42 1.003-.42 1.616 0 .614.135 1.138.42 1.602.285.464.675.823 1.155 1.093.48.254 1.034.389 1.649.389.54 0 1.05-.12 1.485-.345.315-.164.569-.404.809-.688v.539c0 .718-.18 1.257-.524 1.601-.36.345-.9.524-1.665.524a4.14 4.14 0 01-1.364-.224c-.435-.15-.795-.345-1.095-.614l-.555.883c.345.3.795.539 1.335.704a5.888 5.888 0 001.694.239c1.08 0 1.904-.27 2.459-.793.555-.524.84-1.347.84-2.47V3.23h-1.095v1.018l.03.03zm-.315 3.068a2.03 2.03 0 01-.779.734 2.31 2.31 0 01-1.125.269c-.42 0-.809-.09-1.139-.27-.33-.18-.6-.419-.78-.733a1.997 1.997 0 01-.285-1.077c0-.405.09-.764.285-1.078.195-.314.45-.554.78-.719.33-.18.704-.254 1.139-.254.435 0 .795.09 1.125.254a2 2 0 01.779.719c.195.314.285.673.285 1.078 0 .404-.09.763-.285 1.077zm9.552-6.122l-3.809 8.397h1.245l.93-2.095h4.468l.929 2.095h1.26L130.9 1.223h-1.199zm-1.23 5.344l1.815-4.131 1.814 4.13h-3.629zm12.266-2.29c-.24-.314-.51-.584-.87-.748a3.27 3.27 0 00-1.484-.33 3.48 3.48 0 00-1.65.39 2.964 2.964 0 00-1.154 1.077c-.285.464-.42 1.003-.42 1.616 0 .614.135 1.138.42 1.602.285.464.675.823 1.154 1.093.48.254 1.035.389 1.65.389.54 0 1.049-.12 1.484-.345.315-.164.57-.404.81-.688v.539c0 .718-.18 1.257-.525 1.601-.36.345-.9.524-1.664.524-.48 0-.93-.075-1.365-.224-.435-.15-.795-.345-1.094-.614l-.555.883c.345.3.795.539 1.334.704a5.87 5.87 0 001.695.239c1.079 0 1.904-.27 2.459-.793.555-.524.839-1.347.839-2.47V3.23h-1.094v1.018l.03.03zm-.315 3.068a2.04 2.04 0 01-.78.734c-.33.18-.704.269-1.124.269-.42 0-.81-.09-1.14-.27-.33-.18-.6-.419-.78-.733-.195-.314-.284-.673-.284-1.077 0-.405.089-.764.284-1.078.195-.314.45-.554.78-.719.33-.18.705-.254 1.14-.254.435 0 .794.09 1.124.254.33.165.585.42.78.719.195.314.285.673.285 1.078 0 .404-.09.763-.285 1.077zm7.857-3.742c-.48-.27-1.02-.404-1.634-.404-.615 0-1.155.135-1.65.42-.48.269-.869.658-1.139 1.152a3.431 3.431 0 00-.42 1.676c0 .629.135 1.197.42 1.676.285.494.689.869 1.199 1.153.51.284 1.11.419 1.8.419a3.73 3.73 0 001.439-.27 2.83 2.83 0 001.08-.763l-.645-.748a2.55 2.55 0 01-.81.584 2.552 2.552 0 01-1.035.194c-.449 0-.854-.09-1.214-.27a1.963 1.963 0 01-.825-.778c-.15-.239-.21-.523-.255-.808h5.158s0-.12.015-.18v-.164c0-.659-.135-1.227-.404-1.721a3.04 3.04 0 00-1.11-1.153l.03-.015zm-2.699.838a2.12 2.12 0 011.065-.269c.389 0 .764.09 1.079.27.315.18.555.434.735.748.135.24.195.509.225.808h-4.064a2.31 2.31 0 01.225-.793c.18-.33.42-.569.735-.764zm10.601-.942c-.39-.195-.855-.3-1.38-.3-.584 0-1.079.12-1.514.344-.33.18-.585.435-.78.719V3.259h-1.109V9.62h1.154V6.342c0-.464.075-.853.24-1.167a1.6 1.6 0 01.705-.704c.3-.164.66-.239 1.065-.239.539 0 .974.15 1.274.464.3.314.45.778.45 1.392V9.62h1.154V5.953c0-.628-.105-1.137-.329-1.541a2.185 2.185 0 00-.93-.913zm5.053.987a2.31 2.31 0 011.125-.269c.344 0 .674.075.974.224.3.15.555.375.765.689l.885-.569a2.456 2.456 0 00-1.05-1.018 3.447 3.447 0 00-1.544-.344c-.645 0-1.23.135-1.74.42a2.96 2.96 0 00-1.199 1.152 3.284 3.284 0 00-.435 1.676c0 .629.15 1.197.435 1.676.285.494.689.869 1.199 1.153.51.284 1.095.419 1.74.419.584 0 1.094-.12 1.544-.36.45-.239.81-.568 1.05-1.017l-.885-.554c-.21.315-.465.54-.765.689-.3.15-.63.224-.974.224-.42 0-.795-.09-1.125-.27a2.048 2.048 0 01-.78-.777c-.195-.33-.285-.734-.285-1.183 0-.449.09-.853.285-1.182.195-.33.45-.584.78-.779zm9.641-1.227l-2.204 5.089-2.219-5.089h-1.199l2.819 6.346-.21.45c-.165.358-.33.628-.51.763-.18.134-.42.209-.705.209-.21 0-.42-.045-.615-.12a1.522 1.522 0 01-.525-.344l-.494.868c.21.195.45.344.749.434.285.105.585.15.885.15.33 0 .63-.06.9-.165.27-.104.525-.284.749-.539.225-.254.435-.613.615-1.062L172 3.259h-1.125z" fill="#221F20"/></svg>