<svg width="660" height="27" fill="none" xmlns="http://www.w3.org/2000/svg"><path d="M25.321 5.672v15.013c0 3.693-4.523 5.788-12.804 5.788-4.44 0-8.281-.762-8.855-.922v-3.48c1.008.22 4.416.819 8.585.819 5.444 0 8.277-.786 8.277-2.422v-.792l.004-.403C15.5 20.289 0 23.879 0 13.042c0-11.11 16.309-7.05 20.898-6.161.08.013.154.033.23.053l.485-1.262h3.708zm-4.797 4.762c-.29-.046-7.483-1.112-11.942-1.112-2.797 0-3.762 1.658-3.762 3.72 0 2.068.965 3.72 3.762 3.72 4.459 0 11.652-1.066 11.942-1.113v-5.215zM43.59 5.462v3.87a46.513 46.513 0 00-1.019-.014c-4.516 0-8.06.93-8.538 1.106v9.985h-4.797V5.429h3.705l.691 1.775c1.956-.703 5.548-1.749 9.62-1.749.117 0 .227.007.337.007zm26.238 7.533c0 5.542-4.37 7.67-12.31 7.67s-12.283-2.128-12.283-7.67c0-5.295 4.342-7.563 12.283-7.563 7.944 0 12.31 2.268 12.31 7.563zm-4.77 0c0-1.282-.027-3.707-7.54-3.707-7.514 0-7.537 2.428-7.537 3.707 0 1.28.023 3.807 7.537 3.807 7.517 0 7.54-2.525 7.54-3.807zm37.044-7.317l-5.197 14.72h-5.2L86.64 7.494 82.085 20.4h-5.2L71.11 5.679h5.143l5.094 12.975L85.93 5.678h5.143l5.094 12.976 4.586-12.976h1.349zm10.01 2.198v5.166h.03c0 2.068 1.035 3.72 3.748 3.72 7.173 0 13.228-1.379 13.228-1.379V19c-6.695 1.462-21.803 4.762-21.803-5.958V7.876h-4.075V6.608h4.075V.057h4.797v6.55h17.006v1.27h-17.006zm45.505 5.079v7.434h-4.773v-7.35c0-2.212-.795-3.72-3.775-3.72-4.456 0-11.693 1.065-11.98 1.112v9.971h-4.796V.023h4.796v6.784c7.39-1.462 20.471-3.913 20.528 6.148zm37.267-1.702v9.159h-3.705l-.487-1.372-.034.02c-2.426.813-6.051 1.735-9.996 1.735-2.918 0-4.987-.3-6.346-.976-1.418-.716-2.099-1.878-2.099-3.563 0-1.522.707-2.718 1.989-3.42 1.172-.627 3.431-1.12 7.003-1.12 3.678 0 7.79.437 8.825.546l.06.007v-.8c0-1.624-2.837-2.414-8.281-2.414-4.166 0-7.574.593-8.578.813v-3.48c.571-.163 4.412-.923 8.852-.923 8.274-.003 12.797 2.092 12.797 5.788zm-4.723 4.99l-.027-1.536h-.02s-3.978-.333-7.984-.333c-2.37 0-3.815.083-4.469.41-.434.22-.651.6-.651 1.059 0 .52.19.899.651 1.119.517.24 1.579.403 3.545.403 3.731 0 7.083-.6 8.908-1.113l.047-.01zm33.642-3.288v7.434h-4.776v-7.35c0-2.212-.791-3.72-3.769-3.72-4.459 0-11.696 1.065-11.983 1.112v9.97h-4.796V5.669h3.698l.491 1.256c8.909-1.752 21.082-3.9 21.135 6.031zM251.978.027v20.378h-3.708l-.488-1.255c-.073.02-.146.04-.226.053-4.59.886-20.902 4.949-20.902-6.161 0-10.83 15.497-7.247 20.524-6.231V.027h4.8zm-4.8 10.407c-.287-.047-7.483-1.112-11.943-1.112-2.797 0-3.761 1.658-3.761 3.72 0 2.068.964 3.72 3.761 3.72 4.46 0 11.653-1.066 11.943-1.113v-5.215zm55.425 2.521v7.434h-4.773v-7.35c0-2.432-.257-3.72-3.755-3.72-2.493 0-5.844.899-6.879 1.195.183.723.284 1.535.284 2.438v7.433h-4.774v-7.35c0-2.431-.257-3.72-3.755-3.72-2.917 0-6.452 1.06-6.602 1.106v9.978h-4.793V5.665h3.702l.614 1.582c5.137-2.301 11.128-2.718 13.962.56C293.02 4.09 302.61 4 302.603 12.954zm25.568-1.702v9.159h-3.705l-.487-1.372-.033.02c-2.427.813-6.052 1.735-9.997 1.735-2.918 0-4.987-.3-6.346-.976-1.418-.716-2.099-1.878-2.099-3.563 0-1.522.708-2.718 1.989-3.42 1.172-.627 3.432-1.12 7.003-1.12 3.678 0 7.791.437 8.825.546l.061.007v-.8c0-1.624-2.838-2.414-8.282-2.414-4.165 0-7.573.593-8.578.813v-3.48c.571-.163 4.413-.923 8.852-.923 8.271-.003 12.797 2.092 12.797 5.788zm-4.723 4.99l-.026-1.536h-.02s-3.979-.333-7.985-.333c-2.369 0-3.815.083-4.469.41-.434.22-.651.6-.651 1.059 0 .52.19.899.651 1.119.517.24 1.579.403 3.545.403 3.732 0 7.083-.6 8.909-1.113l.046-.01zm22.701-10.781v3.87a48.693 48.693 0 00-1.018-.014c-4.52 0-8.061.93-8.542 1.106v9.985h-4.796V5.429h3.702l.691 1.775c1.955-.703 5.547-1.749 9.623-1.749.12 0 .23.007.34.007zm16.359 6.188l10.157 8.742h-7.2l-7.497-6.448-4.356 2.205v4.25h-4.773V0h4.773v14.734l17.868-9.062 2.831.006-11.803 5.972zm34.51 2.218H379.21c.341 1.848 1.987 2.954 6.856 2.954 4.033 0 9.063-1.036 9.664-1.196v3.044c-5.364 2.142-21.403 4.69-21.403-5.652 0-4.489 2.564-7.56 11.306-7.56 8.284 0 11.375 2.985 11.388 7.144v1.266h-.003zm-4.81-1.27c-.023-1.8-2.043-3.276-5.905-3.276-5.634 0-6.976 1.425-7.143 3.277h13.048zm14.884-4.722v5.166h.03c0 2.068 1.034 3.72 3.748 3.72 7.173 0 13.228-1.379 13.228-1.379V19c-6.696 1.462-21.803 4.762-21.803-5.958V7.876h-4.075V6.608h4.075V.057h4.8v6.55h17.006v1.27h-17.009zm19.87-5.834c0-1.196.764-1.985 2.724-1.985 1.959 0 2.723.786 2.723 1.985 0 1.222-.764 2.034-2.723 2.034-1.96 0-2.724-.812-2.724-2.034zm.34 3.636h4.773v14.72h-4.773V5.679zm33.736 7.277v7.434h-4.776v-7.35c0-2.212-.791-3.72-3.772-3.72-4.456 0-11.693 1.065-11.98 1.112v9.97h-4.796V5.669h3.698l.491 1.256c8.909-1.752 21.082-3.9 21.135 6.031zm28.171-7.283v15.013c0 3.693-4.519 5.788-12.804 5.788-4.436 0-8.277-.762-8.851-.922v-3.48c1.008.22 4.415.819 8.581.819 5.447 0 8.278-.786 8.278-2.422v-.792l.003-.403c-5.026 1.016-20.528 4.606-20.528-6.231 0-11.11 16.313-7.05 20.902-6.161.077.013.154.033.227.053l.487-1.262h3.705zm-4.796 4.762c-.29-.046-7.483-1.112-11.943-1.112-2.797 0-3.762 1.658-3.762 3.72 0 2.068.965 3.72 3.762 3.72 4.46 0 11.653-1.066 11.943-1.113v-5.215zm42.428.819v9.159h-3.706l-.487-1.372-.033.02c-2.427.813-6.052 1.735-9.997 1.735-2.917 0-4.987-.3-6.345-.976-1.419-.716-2.1-1.878-2.1-3.563 0-1.522.708-2.718 1.989-3.42 1.172-.627 3.432-1.12 7.003-1.12 3.679 0 7.791.437 8.826.546l.06.007v-.8c0-1.624-2.838-2.414-8.282-2.414-4.165 0-7.573.593-8.578.813v-3.48c.571-.163 4.413-.923 8.852-.923 8.275-.003 12.798 2.092 12.798 5.788zm-4.724 4.99l-.026-1.536h-.02s-3.979-.333-7.984-.333c-2.37 0-3.816.083-4.47.41-.434.22-.651.6-.651 1.059 0 .52.191.899.651 1.119.518.24 1.579.403 3.545.403 3.732 0 7.08-.6 8.909-1.113l.046-.01zm32.965-10.571v15.013c0 3.693-4.519 5.788-12.804 5.788-4.439 0-8.278-.762-8.852-.922v-3.48c1.008.22 4.413.819 8.582.819 5.447 0 8.278-.786 8.278-2.422v-.792l.003-.403c-5.027 1.016-20.528 4.606-20.528-6.231 0-11.11 16.312-7.05 20.902-6.161.077.013.153.033.227.053l.487-1.262h3.705zm-4.793 4.762c-.29-.046-7.484-1.112-11.943-1.112-2.797 0-3.762 1.658-3.762 3.72 0 2.068.965 3.72 3.762 3.72 4.459 0 11.653-1.066 11.943-1.113v-5.215zm30.675 3.434h-17.811c.34 1.848 1.986 2.954 6.856 2.954 4.032 0 9.062-1.036 9.663-1.196v3.044c-5.364 2.142-21.402 4.69-21.402-5.652 0-4.489 2.563-7.56 11.305-7.56 8.285 0 11.376 2.985 11.392 7.144v1.266h-.003zm-4.81-1.27c-.023-1.8-2.043-3.276-5.901-3.276-5.635 0-6.98 1.425-7.147 3.277h13.048zm33.235.357v7.434h-4.777v-7.35c0-2.212-.791-3.72-3.771-3.72-4.453 0-11.693 1.065-11.98 1.112v9.97h-4.796V5.669h3.701l.488 1.256c8.908-1.752 21.082-3.9 21.135 6.031zm7.667.087c0 2.068 1.038 3.726 3.748 3.726 7.177 0 13.232-1.385 13.232-1.385V19c-6.699 1.462-21.8 4.762-21.8-5.958 0-10.72 15.101-7.424 21.8-5.958V10.7s-6.052-1.38-13.232-1.38c-2.713 0-3.748 1.66-3.748 3.72zm42.184-7.364l-14.98 20.829h-1.559l4.115-5.725-11.652-15.104h5.981l8.595 11.037 7.941-11.037h1.559z" fill="#A6A5A4"/></svg>