<svg width="172" height="13" viewBox="0 0 172 13" fill="none" xmlns="http://www.w3.org/2000/svg">
<path d="M2.14419 3.1093C2.44408 2.82492 2.80394 2.60041 3.20879 2.43577C3.62863 2.27113 4.06346 2.19629 4.54328 2.19629C5.0231 2.19629 5.45794 2.27113 5.86278 2.43577C6.26763 2.58544 6.64249 2.83989 6.98736 3.16917L7.73708 2.4208C7.34722 1.98675 6.8824 1.65747 6.32761 1.44793C5.77282 1.23839 5.15805 1.11865 4.4983 1.11865C3.83855 1.11865 3.23878 1.22342 2.69898 1.43296C2.15918 1.6425 1.67937 1.94185 1.27452 2.331C0.869671 2.72015 0.55479 3.16917 0.329875 3.69302C0.10496 4.21687 0 4.78563 0 5.41425C0 6.04288 0.10496 6.61163 0.329875 7.13549C0.55479 7.65934 0.869671 8.10836 1.27452 8.49751C1.67937 8.88666 2.14419 9.186 2.69898 9.39554C3.23878 9.60509 3.83855 9.70986 4.48331 9.70986C5.08308 9.70986 5.65286 9.62005 6.20765 9.44045C6.76244 9.26084 7.25726 8.99143 7.66211 8.64718V5.36935H6.50754V8.09339C6.28263 8.24307 6.07271 8.3628 5.8328 8.43764C5.41295 8.57235 4.99311 8.64718 4.54328 8.64718C4.06346 8.64718 3.61363 8.57235 3.20879 8.40771C2.80394 8.24307 2.44408 8.01856 2.14419 7.73418C1.8443 7.43483 1.60439 7.10556 1.43946 6.70144C1.27452 6.29732 1.19955 5.87824 1.19955 5.42922C1.19955 4.9802 1.27452 4.53118 1.43946 4.14204C1.60439 3.75289 1.82931 3.40864 2.14419 3.1093Z" fill="#221F20"/>
<path d="M10.9008 4.38154V3.25899H9.79126V9.62008H10.9458V6.44702C10.9458 5.74356 11.1258 5.21971 11.4856 4.84552C11.8455 4.47134 12.3403 4.29173 12.9551 4.29173H13.075C13.075 4.29173 13.165 4.29173 13.21 4.29173V3.16919C12.5952 3.16919 12.0854 3.28893 11.6656 3.51344C11.3057 3.70801 11.0658 3.99239 10.8858 4.33664L10.9008 4.38154Z" fill="#221F20"/>
<path d="M19.0128 3.6183C18.518 3.34889 17.9483 3.19922 17.3185 3.19922C16.6887 3.19922 16.1039 3.33392 15.6091 3.6183C15.1143 3.88771 14.7245 4.27686 14.4246 4.77078C14.1397 5.2647 13.9897 5.81849 13.9897 6.44711C13.9897 7.07574 14.1397 7.62953 14.4246 8.12345C14.7095 8.61737 15.0993 9.00652 15.6091 9.27593C16.1039 9.5603 16.6737 9.69501 17.3185 9.69501C17.9632 9.69501 18.518 9.5603 19.0128 9.27593C19.5077 8.99155 19.9125 8.61737 20.1974 8.12345C20.4823 7.62953 20.6172 7.07574 20.6172 6.44711C20.6172 5.81849 20.4673 5.24973 20.1974 4.75581C19.9125 4.27686 19.5227 3.88771 19.0128 3.6183ZM19.1778 7.62953C18.9979 7.97377 18.7429 8.22822 18.4131 8.42279C18.0832 8.61737 17.7233 8.6922 17.3185 8.6922C16.9136 8.6922 16.5388 8.6024 16.2239 8.42279C15.909 8.24319 15.6391 7.97377 15.4592 7.62953C15.2643 7.28528 15.1743 6.89613 15.1743 6.44711C15.1743 5.9981 15.2643 5.59398 15.4592 5.2647C15.6541 4.93542 15.909 4.68098 16.2239 4.4864C16.5388 4.3068 16.9136 4.21699 17.3185 4.21699C17.7233 4.21699 18.0982 4.3068 18.4131 4.4864C18.728 4.66601 18.9979 4.93542 19.1778 5.2647C19.3577 5.59398 19.4477 5.98313 19.4477 6.44711C19.4477 6.9111 19.3577 7.28528 19.1778 7.62953Z" fill="#221F20"/>
<path d="M28.759 8.3479L26.8698 3.25903H25.8951L23.9609 8.33294L22.1166 3.25903H21.022L23.3911 9.62012H24.5007L26.36 4.80066L28.2043 9.62012H29.2988L31.6829 3.25903H30.6483L28.759 8.3479Z" fill="#221F20"/>
<path d="M35.3566 8.72212C35.0417 8.72212 34.7868 8.63231 34.6219 8.45271C34.4419 8.2731 34.367 8.00369 34.367 7.65944V4.21697H36.1963V3.27404H34.367V1.88208H33.2124V3.27404H32.1328V4.21697H33.2124V7.70434C33.2124 8.34794 33.3923 8.84186 33.7372 9.1861C34.0971 9.53035 34.5919 9.70996 35.2216 9.70996C35.4915 9.70996 35.7464 9.68002 35.9864 9.60518C36.2263 9.53035 36.4362 9.42558 36.6161 9.27591L36.2563 8.45271C36.0163 8.64728 35.7165 8.75205 35.3566 8.75205V8.72212Z" fill="#221F20"/>
<path d="M42.7939 3.49851C42.4041 3.30393 41.9393 3.19916 41.4145 3.19916C40.8297 3.19916 40.3349 3.3189 39.9 3.54341C39.5851 3.70805 39.3602 3.93256 39.1653 4.20197V0.7146H38.0107V9.62012H39.1653V6.34229C39.1653 5.8783 39.2403 5.48915 39.4052 5.17484C39.5702 4.86053 39.8101 4.62105 40.1099 4.47138C40.4098 4.30674 40.7697 4.23191 41.1745 4.23191C41.7143 4.23191 42.1492 4.38158 42.4491 4.69589C42.749 5.0102 42.8989 5.47419 42.8989 6.08785V9.62012H44.0535V5.95314C44.0535 5.32452 43.9485 4.81563 43.7236 4.41151C43.4987 4.0074 43.1838 3.69308 42.7939 3.49851Z" fill="#221F20"/>
<path d="M56.0189 5.93813L55.0892 5.63878C54.9692 6.22251 54.7893 6.71643 54.5494 7.15048L52.4802 5.09997C52.7951 4.92036 53.08 4.75572 53.2899 4.59108C53.6348 4.33663 53.8897 4.06722 54.0396 3.79781C54.1895 3.5284 54.2795 3.22906 54.2795 2.91474C54.2795 2.54056 54.1895 2.22625 54.0246 1.97181C53.8447 1.71736 53.6048 1.50782 53.2899 1.37311C52.975 1.23841 52.6151 1.16357 52.1803 1.16357C51.7305 1.16357 51.3256 1.23841 50.9808 1.40305C50.6359 1.55272 50.381 1.77723 50.1861 2.06161C49.9911 2.34599 49.9012 2.67527 49.9012 3.04945C49.9012 3.25899 49.9311 3.4835 50.0061 3.69304C50.0811 3.90258 50.2011 4.11213 50.351 4.33663C50.4859 4.53121 50.6809 4.74075 50.9058 4.98023C50.5159 5.20474 50.1861 5.41428 49.9162 5.62382C49.5413 5.92316 49.2714 6.22251 49.1065 6.53682C48.9415 6.85113 48.8516 7.19538 48.8516 7.56956C48.8516 8.00361 48.9865 8.3778 49.2414 8.70707C49.4963 9.03635 49.8412 9.2908 50.291 9.47041C50.7259 9.65001 51.2357 9.73981 51.8054 9.73981C52.5252 9.73981 53.1549 9.59014 53.7247 9.2908C54.0546 9.12616 54.3395 8.90165 54.5944 8.6472L55.734 9.76975L56.3787 9.00642L55.2391 7.86891C55.584 7.33008 55.8389 6.70146 55.9889 5.9531L56.0189 5.93813ZM51.3106 2.27115C51.5206 2.07658 51.8204 1.98678 52.1953 1.98678C52.5702 1.98678 52.8251 2.07658 53.02 2.24122C53.2149 2.40586 53.3049 2.63037 53.3049 2.91474C53.3049 3.10932 53.2449 3.30389 53.1249 3.46853C53.005 3.63317 52.8101 3.82775 52.5402 4.00735C52.3602 4.12709 52.1053 4.27677 51.8354 4.44141C51.6405 4.23186 51.4606 4.05226 51.3556 3.91755C51.2207 3.75291 51.1157 3.58827 51.0707 3.45357C51.0257 3.31886 50.9957 3.16919 50.9957 3.01951C50.9957 2.72017 51.1007 2.46573 51.3106 2.28612V2.27115ZM53.3649 8.40773C52.93 8.6472 52.4502 8.75197 51.9104 8.75197C51.5355 8.75197 51.2057 8.69211 50.9208 8.58734C50.6359 8.48257 50.411 8.31792 50.261 8.10838C50.1111 7.89884 50.0211 7.67433 50.0211 7.40492C50.0211 7.15048 50.0811 6.92597 50.201 6.71643C50.321 6.50689 50.5159 6.29735 50.7858 6.0878C50.9808 5.92316 51.2656 5.75852 51.5805 5.57892L53.9646 7.95871C53.7847 8.13832 53.5748 8.28799 53.3649 8.40773Z" fill="#221F20"/>
<path d="M69.0489 1.22339L65.5852 7.12049L62.0765 1.22339H61.0869V9.62002H62.2415V3.52835L65.2853 8.60225H65.8401L68.884 3.49841L68.899 9.62002H70.0535L70.0385 1.22339H69.0489Z" fill="#221F20"/>
<path d="M74.7167 3.19922C74.2069 3.19922 73.7271 3.27405 73.2623 3.40876C72.7975 3.54346 72.4076 3.75301 72.0777 4.02242L72.5576 4.89052C72.8125 4.68098 73.1124 4.51634 73.4722 4.3966C73.8321 4.27686 74.2069 4.21699 74.5818 4.21699C75.1516 4.21699 75.5714 4.3517 75.8563 4.62111C76.1412 4.89052 76.2762 5.2647 76.2762 5.75862V5.98313H74.4468C73.8171 5.98313 73.3073 6.07293 72.9324 6.23757C72.5576 6.40221 72.2877 6.62672 72.1227 6.9111C71.9578 7.19548 71.8828 7.50979 71.8828 7.85404C71.8828 8.21325 71.9728 8.54253 72.1677 8.82691C72.3626 9.11129 72.6325 9.33579 72.9924 9.50043C73.3523 9.66507 73.7571 9.73991 74.2369 9.73991C74.8217 9.73991 75.3015 9.63514 75.6914 9.41063C75.9763 9.24599 76.1712 9.03645 76.3361 8.78201V9.66507H77.4307V5.81849C77.4307 4.95039 77.1908 4.30679 76.726 3.87274C76.2462 3.45366 75.5864 3.24412 74.7017 3.24412L74.7167 3.19922ZM75.5864 8.5126C75.2565 8.70717 74.8817 8.79697 74.4468 8.79697C74.012 8.79697 73.6671 8.70717 73.4122 8.5126C73.1573 8.31802 73.0374 8.07854 73.0374 7.76423C73.0374 7.49482 73.1423 7.25535 73.3373 7.06077C73.5322 6.8662 73.922 6.77639 74.5068 6.77639H76.2912V7.65946C76.1412 8.03364 75.9163 8.30305 75.5864 8.49763V8.5126Z" fill="#221F20"/>
<path d="M80.6994 4.38154V3.25899H79.5898V9.62008H80.7444V6.44702C80.7444 5.74356 80.9243 5.21971 81.2842 4.84552C81.6441 4.47134 82.1389 4.29173 82.7536 4.29173H82.8736C82.8736 4.29173 82.9636 4.29173 83.0085 4.29173V3.16919C82.3938 3.16919 81.884 3.28893 81.4641 3.51344C81.1043 3.70801 80.8644 3.99239 80.6844 4.33664L80.6994 4.38154Z" fill="#221F20"/>
<path d="M90.4608 3.25903H89.0664L85.5877 6.43209V0.7146H84.4331V9.62012H85.5877V7.88392L86.9072 6.6566L89.3063 9.62012H90.7307L87.7768 5.89327L90.4608 3.25903Z" fill="#221F20"/>
<path d="M95.8288 3.60334C95.3489 3.33392 94.8091 3.19922 94.1944 3.19922C93.5796 3.19922 93.0398 3.33392 92.545 3.6183C92.0652 3.88771 91.6753 4.27686 91.4054 4.77078C91.1355 5.2647 90.9856 5.81849 90.9856 6.44711C90.9856 7.07574 91.1205 7.64449 91.4054 8.12345C91.6903 8.61737 92.0952 8.99155 92.605 9.27593C93.1148 9.5603 93.7146 9.69501 94.4043 9.69501C94.9291 9.69501 95.4089 9.60521 95.8438 9.4256C96.2786 9.24599 96.6385 8.99155 96.9233 8.66227L96.2786 7.91391C96.0387 8.16835 95.7688 8.36292 95.4689 8.49763C95.154 8.63233 94.8241 8.6922 94.4343 8.6922C93.9845 8.6922 93.5796 8.6024 93.2197 8.42279C92.8599 8.24319 92.59 7.97377 92.3951 7.64449C92.2451 7.40502 92.1851 7.12064 92.1402 6.83626H97.2982C97.2982 6.83626 97.2982 6.71652 97.3132 6.65666C97.3132 6.59679 97.3132 6.53692 97.3132 6.49201C97.3132 5.83346 97.1782 5.2647 96.9083 4.77078C96.6385 4.27686 96.2636 3.90268 95.7988 3.6183L95.8288 3.60334ZM93.1298 4.4415C93.4447 4.26189 93.8045 4.17209 94.1944 4.17209C94.5842 4.17209 94.9591 4.26189 95.274 4.4415C95.5889 4.62111 95.8288 4.87555 96.0087 5.18986C96.1436 5.42934 96.2036 5.69875 96.2336 5.9981H92.1701C92.2001 5.71372 92.2751 5.44431 92.3951 5.20483C92.575 4.87555 92.8149 4.63608 93.1298 4.4415Z" fill="#221F20"/>
<path d="M101.257 8.72212C100.942 8.72212 100.687 8.63231 100.522 8.45271C100.342 8.2731 100.267 8.00369 100.267 7.65944V4.21697H102.096V3.27404H100.267V1.88208H99.1126V3.27404H98.033V4.21697H99.1126V7.70434C99.1126 8.34794 99.2925 8.84186 99.6374 9.1861C99.9972 9.53035 100.492 9.70996 101.122 9.70996C101.392 9.70996 101.647 9.68002 101.887 9.60518C102.126 9.53035 102.336 9.42558 102.516 9.27591L102.156 8.45271C101.916 8.64728 101.617 8.75205 101.257 8.75205V8.72212Z" fill="#221F20"/>
<path d="M104.496 0.534987C104.271 0.534987 104.091 0.609825 103.941 0.74453C103.791 0.894203 103.716 1.07381 103.716 1.28335C103.716 1.49289 103.791 1.6725 103.941 1.8072C104.091 1.95687 104.271 2.01674 104.496 2.01674C104.72 2.01674 104.915 1.94191 105.065 1.79223C105.215 1.64256 105.275 1.46295 105.275 1.25341C105.275 1.04387 105.2 0.864268 105.05 0.729563C104.9 0.594858 104.72 0.52002 104.496 0.52002V0.534987Z" fill="#221F20"/>
<path d="M105.08 3.25903H103.926V9.62012H105.08V3.25903Z" fill="#221F20"/>
<path d="M112.053 3.49856C111.663 3.30399 111.198 3.19922 110.673 3.19922C110.088 3.19922 109.594 3.31896 109.159 3.54347C108.829 3.72307 108.574 3.97752 108.379 4.26189V3.25909H107.27V9.62017H108.424V6.34235C108.424 5.87836 108.499 5.48921 108.664 5.1749C108.829 4.86058 109.069 4.62111 109.369 4.47144C109.669 4.3068 110.028 4.23196 110.433 4.23196C110.973 4.23196 111.408 4.38163 111.708 4.69595C112.008 5.01026 112.158 5.47424 112.158 6.0879V9.62017H113.312V5.9532C113.312 5.32457 113.207 4.81568 112.982 4.41157C112.757 4.00745 112.443 3.69314 112.053 3.49856Z" fill="#221F20"/>
<path d="M120.464 4.27686C120.224 3.96255 119.955 3.69314 119.595 3.5285C119.145 3.30399 118.65 3.19922 118.11 3.19922C117.495 3.19922 116.941 3.33392 116.461 3.58837C115.981 3.84281 115.591 4.20202 115.306 4.66601C115.021 5.12999 114.886 5.66882 114.886 6.28247C114.886 6.89613 115.021 7.41999 115.306 7.88397C115.591 8.34796 115.981 8.70717 116.461 8.97658C116.941 9.23103 117.495 9.36573 118.11 9.36573C118.65 9.36573 119.16 9.24599 119.595 9.02148C119.91 8.85684 120.164 8.61737 120.404 8.33299V8.87181C120.404 9.59024 120.224 10.1291 119.88 10.4733C119.52 10.8176 118.98 10.9972 118.215 10.9972C117.735 10.9972 117.286 10.9223 116.851 10.7727C116.416 10.623 116.056 10.4284 115.756 10.159L115.201 11.0421C115.546 11.3414 115.996 11.5809 116.536 11.7455C117.091 11.9102 117.645 11.985 118.23 11.985C119.31 11.985 120.134 11.7156 120.689 11.1917C121.244 10.6679 121.529 9.84468 121.529 8.72214V3.22915H120.434V4.24693L120.464 4.27686ZM120.149 7.34515C119.955 7.65946 119.7 7.89894 119.37 8.07855C119.04 8.25815 118.665 8.34796 118.245 8.34796C117.825 8.34796 117.436 8.25815 117.106 8.07855C116.776 7.89894 116.506 7.65946 116.326 7.34515C116.131 7.03084 116.041 6.67162 116.041 6.26751C116.041 5.86339 116.131 5.50418 116.326 5.18986C116.521 4.87555 116.776 4.63608 117.106 4.47144C117.436 4.29183 117.81 4.21699 118.245 4.21699C118.68 4.21699 119.04 4.3068 119.37 4.47144C119.7 4.63608 119.955 4.89052 120.149 5.18986C120.344 5.50418 120.434 5.86339 120.434 6.26751C120.434 6.67162 120.344 7.03084 120.149 7.34515Z" fill="#221F20"/>
<path d="M129.701 1.22339L125.892 9.62002H127.137L128.067 7.52461H132.535L133.464 9.62002H134.724L130.9 1.22339H129.716H129.701ZM128.471 6.5667L130.286 2.43574L132.1 6.5667H128.471Z" fill="#221F20"/>
<path d="M140.737 4.27686C140.497 3.96255 140.227 3.69314 139.867 3.5285C139.417 3.30399 138.923 3.19922 138.383 3.19922C137.768 3.19922 137.213 3.33392 136.733 3.58837C136.254 3.84281 135.864 4.20202 135.579 4.66601C135.294 5.12999 135.159 5.66882 135.159 6.28247C135.159 6.89613 135.294 7.41999 135.579 7.88397C135.864 8.34796 136.254 8.70717 136.733 8.97658C137.213 9.23103 137.768 9.36573 138.383 9.36573C138.923 9.36573 139.432 9.24599 139.867 9.02148C140.182 8.85684 140.437 8.61737 140.677 8.33299V8.87181C140.677 9.59024 140.497 10.1291 140.152 10.4733C139.792 10.8176 139.252 10.9972 138.488 10.9972C138.008 10.9972 137.558 10.9223 137.123 10.7727C136.688 10.623 136.328 10.4284 136.029 10.159L135.474 11.0421C135.819 11.3414 136.269 11.5809 136.808 11.7455C137.363 11.9102 137.918 11.985 138.503 11.985C139.582 11.985 140.407 11.7156 140.962 11.1917C141.517 10.6679 141.801 9.84468 141.801 8.72214V3.22915H140.707V4.24693L140.737 4.27686ZM140.422 7.34515C140.227 7.65946 139.972 7.89894 139.642 8.07855C139.312 8.25815 138.938 8.34796 138.518 8.34796C138.098 8.34796 137.708 8.25815 137.378 8.07855C137.048 7.89894 136.778 7.65946 136.598 7.34515C136.403 7.03084 136.314 6.67162 136.314 6.26751C136.314 5.86339 136.403 5.50418 136.598 5.18986C136.793 4.87555 137.048 4.63608 137.378 4.47144C137.708 4.29183 138.083 4.21699 138.518 4.21699C138.953 4.21699 139.312 4.3068 139.642 4.47144C139.972 4.63608 140.227 4.89052 140.422 5.18986C140.617 5.50418 140.707 5.86339 140.707 6.26751C140.707 6.67162 140.617 7.03084 140.422 7.34515Z" fill="#221F20"/>
<path d="M148.279 3.60334C147.799 3.33392 147.259 3.19922 146.645 3.19922C146.03 3.19922 145.49 3.33392 144.995 3.6183C144.515 3.88771 144.126 4.27686 143.856 4.77078C143.586 5.2647 143.436 5.81849 143.436 6.44711C143.436 7.07574 143.571 7.64449 143.856 8.12345C144.141 8.61737 144.545 8.99155 145.055 9.27593C145.565 9.5603 146.165 9.69501 146.855 9.69501C147.379 9.69501 147.859 9.60521 148.294 9.4256C148.729 9.24599 149.089 8.99155 149.374 8.66227L148.729 7.91391C148.489 8.16835 148.219 8.36292 147.919 8.49763C147.604 8.63233 147.274 8.6922 146.884 8.6922C146.435 8.6922 146.03 8.6024 145.67 8.42279C145.31 8.24319 145.04 7.97377 144.845 7.64449C144.695 7.40502 144.635 7.12064 144.59 6.83626H149.748C149.748 6.83626 149.748 6.71652 149.763 6.65666C149.763 6.59679 149.763 6.53692 149.763 6.49201C149.763 5.83346 149.628 5.2647 149.359 4.77078C149.089 4.27686 148.714 3.90268 148.249 3.6183L148.279 3.60334ZM145.58 4.4415C145.895 4.26189 146.255 4.17209 146.645 4.17209C147.034 4.17209 147.409 4.26189 147.724 4.4415C148.039 4.62111 148.279 4.87555 148.459 5.18986C148.594 5.42934 148.654 5.69875 148.684 5.9981H144.62C144.65 5.71372 144.725 5.44431 144.845 5.20483C145.025 4.87555 145.265 4.63608 145.58 4.4415Z" fill="#221F20"/>
<path d="M156.181 3.49856C155.791 3.30399 155.326 3.19922 154.801 3.19922C154.217 3.19922 153.722 3.31896 153.287 3.54347C152.957 3.72307 152.702 3.97752 152.507 4.26189V3.25909H151.398V9.62017H152.552V6.34235C152.552 5.87836 152.627 5.48921 152.792 5.1749C152.957 4.86058 153.197 4.62111 153.497 4.47144C153.797 4.3068 154.157 4.23196 154.562 4.23196C155.101 4.23196 155.536 4.38163 155.836 4.69595C156.136 5.01026 156.286 5.47424 156.286 6.0879V9.62017H157.44V5.9532C157.44 5.32457 157.335 4.81568 157.111 4.41157C156.886 4.00745 156.571 3.69314 156.181 3.49856Z" fill="#221F20"/>
<path d="M161.234 4.4864C161.564 4.3068 161.939 4.21699 162.359 4.21699C162.703 4.21699 163.033 4.29183 163.333 4.4415C163.633 4.59117 163.888 4.81568 164.098 5.12999L164.983 4.56124C164.728 4.11222 164.383 3.76797 163.933 3.54347C163.483 3.31896 162.958 3.19922 162.389 3.19922C161.744 3.19922 161.159 3.33392 160.649 3.6183C160.139 3.88771 159.735 4.27686 159.45 4.77078C159.165 5.2647 159.015 5.81849 159.015 6.44711C159.015 7.07574 159.165 7.64449 159.45 8.12345C159.735 8.61737 160.139 8.99155 160.649 9.27593C161.159 9.5603 161.744 9.69501 162.389 9.69501C162.973 9.69501 163.483 9.57527 163.933 9.3358C164.383 9.09632 164.743 8.76704 164.983 8.31802L164.098 7.76423C163.888 8.07855 163.633 8.30306 163.333 8.45273C163.033 8.6024 162.703 8.67724 162.359 8.67724C161.939 8.67724 161.564 8.58743 161.234 8.40783C160.904 8.22822 160.649 7.95881 160.454 7.62953C160.259 7.30025 160.169 6.89613 160.169 6.44711C160.169 5.9981 160.259 5.59398 160.454 5.2647C160.649 4.93542 160.904 4.68098 161.234 4.4864Z" fill="#221F20"/>
<path d="M170.875 3.25903L168.671 8.3479L166.452 3.25903H165.253L168.072 9.60515L167.862 10.0542C167.697 10.4134 167.532 10.6828 167.352 10.8175C167.172 10.9522 166.932 11.027 166.647 11.027C166.437 11.027 166.227 10.9821 166.032 10.9073C165.837 10.8325 165.657 10.7127 165.507 10.5631L165.013 11.4312C165.223 11.6257 165.463 11.7754 165.762 11.8652C166.047 11.97 166.347 12.0149 166.647 12.0149C166.977 12.0149 167.277 11.955 167.547 11.8502C167.817 11.7455 168.072 11.5659 168.296 11.3114C168.521 11.057 168.731 10.6978 168.911 10.2487L172 3.25903H170.875Z" fill="#221F20"/>
</svg>
