<svg width="660" height="27" viewBox="0 0 660 27" fill="none" xmlns="http://www.w3.org/2000/svg">
<path d="M25.321 5.67163V20.685C25.321 24.3784 20.7982 26.4732 12.517 26.4732C8.07763 26.4732 4.23576 25.7106 3.66165 25.5507V22.0705C4.66968 22.2903 8.0776 22.8897 12.2466 22.8897C17.6906 22.8897 20.5244 22.1038 20.5244 20.4685V19.6759L20.5278 19.2729C15.501 20.2887 0 23.8789 0 13.0418C0 1.93159 16.3087 5.99134 20.8983 6.88056C20.9784 6.89388 21.0518 6.91386 21.1286 6.93384L21.6126 5.67163H25.321ZM20.5244 10.4341C20.2341 10.3875 13.041 9.32173 8.58165 9.32173C5.78452 9.32173 4.81989 10.9803 4.81989 13.0418C4.81989 15.1099 5.78452 16.7618 8.58165 16.7618C13.041 16.7618 20.2341 15.6961 20.5244 15.6495V10.4341Z" fill="#A6A5A4"/>
<path d="M43.5891 5.4619V9.33181C43.2653 9.32515 42.9282 9.31848 42.5711 9.31848C38.055 9.31848 34.5102 10.2477 34.0329 10.4242V20.4087H29.2363V5.42859H32.9413L33.6323 7.20369C35.5883 6.50098 39.1798 5.45523 43.252 5.45523C43.3688 5.45523 43.479 5.4619 43.5891 5.4619Z" fill="#A6A5A4"/>
<path d="M69.828 12.9952C69.828 18.537 65.4587 20.6651 57.518 20.6651C49.5772 20.6651 45.2346 18.537 45.2346 12.9952C45.2346 7.69988 49.5772 5.43188 57.518 5.43188C65.462 5.43188 69.828 7.69988 69.828 12.9952ZM65.0582 12.9952C65.0582 11.713 65.0315 9.28848 57.518 9.28848C50.0044 9.28848 49.9811 11.7163 49.9811 12.9952C49.9811 14.2741 50.0044 16.8018 57.518 16.8018C65.0348 16.8018 65.0582 14.2774 65.0582 12.9952Z" fill="#A6A5A4"/>
<path d="M102.102 5.67834L96.9047 20.3987H91.7043L86.6408 7.4934L82.0846 20.3987H76.8842L71.1097 5.67834H76.2534L81.3469 18.6535L85.9298 5.67834H91.0734L96.167 18.6535L100.753 5.67834H102.102Z" fill="#A6A5A4"/>
<path d="M112.112 7.8764V13.0418H112.142C112.142 15.11 113.177 16.7619 115.89 16.7619C123.063 16.7619 129.118 15.3831 129.118 15.3831V18.9999C122.423 20.4619 107.315 23.7624 107.315 13.0418V7.8764H103.24V6.60752H107.315V0.0566406H112.112V6.60752H129.118V7.8764H112.112Z" fill="#A6A5A4"/>
<path d="M157.617 12.9552V20.3886H152.844V13.0385C152.844 10.8271 152.049 9.31843 149.069 9.31843C144.613 9.31843 137.376 10.3842 137.089 10.4308V20.402H132.293V0.0233154H137.089V6.80732C144.479 5.34528 157.56 2.89412 157.617 12.9552Z" fill="#A6A5A4"/>
<path d="M194.884 11.2534V20.412H191.179L190.692 19.0399L190.658 19.0599C188.232 19.8725 184.607 20.795 180.662 20.795C177.744 20.795 175.675 20.4953 174.316 19.8192C172.898 19.1032 172.217 17.9409 172.217 16.2557C172.217 14.7337 172.924 13.5381 174.206 12.8354C175.378 12.2092 177.637 11.7164 181.209 11.7164C184.887 11.7164 188.999 12.1526 190.034 12.2625L190.094 12.2692V11.4699C190.094 9.84467 187.257 9.05537 181.813 9.05537C177.647 9.05537 174.239 9.64818 173.235 9.86799V6.38773C173.806 6.22454 177.647 5.46521 182.087 5.46521C190.361 5.46188 194.884 7.5567 194.884 11.2534ZM190.161 16.2424L190.134 14.707H190.114C190.114 14.707 186.136 14.374 182.13 14.374C179.76 14.374 178.315 14.4573 177.661 14.7836C177.227 15.0035 177.01 15.3831 177.01 15.8427C177.01 16.3622 177.2 16.7419 177.661 16.9617C178.178 17.2015 179.24 17.3647 181.206 17.3647C184.937 17.3647 188.289 16.7652 190.114 16.2523L190.161 16.2424Z" fill="#A6A5A4"/>
<path d="M223.803 12.9552V20.3886H219.027V13.0385C219.027 10.8271 218.236 9.31841 215.258 9.31841C210.799 9.31841 203.562 10.3841 203.275 10.4308V20.4019H198.479V5.6683H202.177L202.668 6.92387C211.577 5.17208 223.75 3.02398 223.803 12.9552Z" fill="#A6A5A4"/>
<path d="M251.978 0.0266113V20.4053H248.27L247.782 19.1497C247.709 19.1697 247.636 19.1897 247.556 19.203C242.966 20.0889 226.654 24.152 226.654 13.0418C226.654 2.21134 242.151 5.79485 247.178 6.81062V0.0266113H251.978ZM247.178 10.4341C246.891 10.3874 239.695 9.32172 235.235 9.32172C232.438 9.32172 231.474 10.9803 231.474 13.0418C231.474 15.1099 232.438 16.7618 235.235 16.7618C239.695 16.7618 246.888 15.6961 247.178 15.6495V10.4341Z" fill="#A6A5A4"/>
<path d="M302.603 12.9553V20.3887H297.83V13.0385C297.83 10.6073 297.573 9.31846 294.075 9.31846C291.582 9.31846 288.231 10.2177 287.196 10.5141C287.379 11.2368 287.48 12.0494 287.48 12.9519V20.3854H282.706V13.0352C282.706 10.604 282.449 9.31514 278.951 9.31514C276.034 9.31514 272.499 10.3742 272.349 10.4208V20.3987H267.556V5.66502H271.258L271.872 7.24697C277.009 4.94567 283 4.52937 285.834 7.80647C293.02 4.08975 302.61 3.99984 302.603 12.9553Z" fill="#A6A5A4"/>
<path d="M328.171 11.2534V20.412H324.466L323.979 19.0399L323.946 19.0599C321.519 19.8725 317.894 20.795 313.949 20.795C311.031 20.795 308.962 20.4953 307.603 19.8192C306.185 19.1032 305.504 17.9409 305.504 16.2557C305.504 14.7337 306.212 13.5381 307.493 12.8354C308.665 12.2092 310.925 11.7164 314.496 11.7164C318.174 11.7164 322.287 12.1526 323.321 12.2625L323.382 12.2692V11.4699C323.382 9.84467 320.544 9.05537 315.1 9.05537C310.935 9.05537 307.527 9.64818 306.522 9.86799V6.38773C307.093 6.22454 310.935 5.46521 315.374 5.46521C323.645 5.46188 328.171 7.5567 328.171 11.2534ZM323.448 16.2424L323.422 14.707H323.402C323.402 14.707 319.423 14.374 315.417 14.374C313.048 14.374 311.602 14.4573 310.948 14.7836C310.514 15.0035 310.297 15.3831 310.297 15.8427C310.297 16.3622 310.487 16.7419 310.948 16.9617C311.465 17.2015 312.527 17.3647 314.493 17.3647C318.225 17.3647 321.576 16.7652 323.402 16.2523L323.448 16.2424Z" fill="#A6A5A4"/>
<path d="M346.149 5.4619V9.33181C345.825 9.32515 345.488 9.31848 345.131 9.31848C340.611 9.31848 337.07 10.2477 336.589 10.4242V20.4087H331.793V5.42859H335.495L336.186 7.20369C338.141 6.50098 341.733 5.45523 345.809 5.45523C345.929 5.45523 346.039 5.4619 346.149 5.4619Z" fill="#A6A5A4"/>
<path d="M362.508 11.6497L372.665 20.392H365.465L357.968 13.9443L353.612 16.1491V20.3986H348.839V0H353.612V14.7336L371.48 5.67166L374.311 5.67832L362.508 11.6497Z" fill="#A6A5A4"/>
<path d="M397.018 13.8677H379.21C379.551 15.7161 381.197 16.8218 386.066 16.8218C390.099 16.8218 395.129 15.786 395.73 15.6262V18.6702C390.366 20.8116 374.327 23.3593 374.327 13.0185C374.327 8.52911 376.891 5.4585 385.633 5.4585C393.917 5.4585 397.008 8.44253 397.021 12.6022V13.8677H397.018ZM392.208 12.5989C392.185 10.7971 390.165 9.32175 386.303 9.32175C380.669 9.32175 379.327 10.7472 379.16 12.5989H392.208Z" fill="#A6A5A4"/>
<path d="M407.092 7.8764V13.0418H407.122C407.122 15.11 408.156 16.7619 410.87 16.7619C418.043 16.7619 424.098 15.3831 424.098 15.3831V18.9999C417.402 20.4619 402.295 23.7624 402.295 13.0418V7.8764H398.22V6.60752H402.295V0.0566406H407.095V6.60752H424.101V7.8764H407.092Z" fill="#A6A5A4"/>
<path d="M426.962 2.04156C426.962 0.845945 427.726 0.0566406 429.686 0.0566406C431.645 0.0566406 432.409 0.842615 432.409 2.04156C432.409 3.26381 431.645 4.07642 429.686 4.07642C427.726 4.07642 426.962 3.26381 426.962 2.04156ZM427.302 5.67834H432.075V20.3987H427.302V5.67834Z" fill="#A6A5A4"/>
<path d="M461.038 12.9552V20.3886H456.262V13.0385C456.262 10.8271 455.471 9.31841 452.49 9.31841C448.034 9.31841 440.797 10.3841 440.51 10.4308V20.4019H435.714V5.6683H439.412L439.903 6.92387C448.812 5.17208 460.985 3.02398 461.038 12.9552Z" fill="#A6A5A4"/>
<path d="M489.209 5.67163V20.685C489.209 24.3784 484.69 26.4732 476.405 26.4732C471.969 26.4732 468.128 25.7106 467.554 25.5507V22.0705C468.562 22.2903 471.969 22.8897 476.135 22.8897C481.582 22.8897 484.413 22.1038 484.413 20.4685V19.6759L484.416 19.2729C479.39 20.2887 463.888 23.8789 463.888 13.0418C463.888 1.93159 480.201 5.99134 484.79 6.88056C484.867 6.89388 484.944 6.91386 485.017 6.93384L485.504 5.67163H489.209ZM484.413 10.4341C484.123 10.3875 476.93 9.32173 472.47 9.32173C469.673 9.32173 468.708 10.9803 468.708 13.0418C468.708 15.1099 469.673 16.7618 472.47 16.7618C476.93 16.7618 484.123 15.6961 484.413 15.6495V10.4341Z" fill="#A6A5A4"/>
<path d="M526.841 11.2534V20.412H523.135L522.648 19.0399L522.615 19.0599C520.188 19.8725 516.563 20.795 512.618 20.795C509.701 20.795 507.631 20.4953 506.273 19.8192C504.854 19.1032 504.173 17.9409 504.173 16.2557C504.173 14.7337 504.881 13.5381 506.162 12.8354C507.334 12.2092 509.594 11.7164 513.165 11.7164C516.844 11.7164 520.956 12.1526 521.991 12.2625L522.051 12.2692V11.4699C522.051 9.84467 519.213 9.05537 513.769 9.05537C509.604 9.05537 506.196 9.64818 505.191 9.86799V6.38773C505.762 6.22454 509.604 5.46521 514.043 5.46521C522.318 5.46188 526.841 7.5567 526.841 11.2534ZM522.117 16.2424L522.091 14.707H522.071C522.071 14.707 518.092 14.374 514.087 14.374C511.717 14.374 510.271 14.4573 509.617 14.7836C509.183 15.0035 508.966 15.3831 508.966 15.8427C508.966 16.3622 509.157 16.7419 509.617 16.9617C510.135 17.2015 511.196 17.3647 513.162 17.3647C516.894 17.3647 520.242 16.7652 522.071 16.2523L522.117 16.2424Z" fill="#A6A5A4"/>
<path d="M555.082 5.67163V20.685C555.082 24.3784 550.563 26.4732 542.278 26.4732C537.839 26.4732 534 25.7106 533.426 25.5507V22.0705C534.434 22.2903 537.839 22.8897 542.008 22.8897C547.455 22.8897 550.286 22.1038 550.286 20.4685V19.6759L550.289 19.2729C545.262 20.2887 529.761 23.8789 529.761 13.0418C529.761 1.93159 546.073 5.99134 550.663 6.88056C550.74 6.89388 550.816 6.91386 550.89 6.93384L551.377 5.67163H555.082ZM550.289 10.4341C549.999 10.3875 542.805 9.32173 538.346 9.32173C535.549 9.32173 534.584 10.9803 534.584 13.0418C534.584 15.1099 535.549 16.7618 538.346 16.7618C542.805 16.7618 549.999 15.6961 550.289 15.6495V10.4341Z" fill="#A6A5A4"/>
<path d="M580.964 13.8677H563.153C563.493 15.7161 565.139 16.8218 570.009 16.8218C574.041 16.8218 579.071 15.786 579.672 15.6262V18.6702C574.308 20.8116 558.27 23.3593 558.27 13.0185C558.27 8.52911 560.833 5.4585 569.575 5.4585C577.86 5.4585 580.951 8.44253 580.967 12.6022V13.8677H580.964ZM576.154 12.5989C576.131 10.7971 574.111 9.32175 570.253 9.32175C564.618 9.32175 563.273 10.7472 563.106 12.5989H576.154Z" fill="#A6A5A4"/>
<path d="M609.389 12.9552V20.3886H604.612V13.0385C604.612 10.8271 603.821 9.31841 600.841 9.31841C596.388 9.31841 589.148 10.3841 588.861 10.4308V20.4019H584.065V5.6683H587.766L588.254 6.92387C597.162 5.17208 609.336 3.02398 609.389 12.9552Z" fill="#A6A5A4"/>
<path d="M617.056 13.0418C617.056 15.11 618.094 16.7685 620.804 16.7685C627.981 16.7685 634.036 15.383 634.036 15.383V18.9999C627.337 20.4619 612.236 23.7623 612.236 13.0418C612.236 2.32126 627.337 5.61835 634.036 7.08372V10.7005C634.036 10.7005 627.984 9.32174 620.804 9.32174C618.091 9.32174 617.056 10.9803 617.056 13.0418Z" fill="#A6A5A4"/>
<path d="M659.24 5.67834L644.26 26.5066H642.701L646.816 20.7817L635.164 5.67834H641.145L649.74 16.7153L657.681 5.67834H659.24Z" fill="#A6A5A4"/>
</svg>
